# xmcd
#
# Track frame offsets: 
#        150
#        13963
#        26350
#        41601
#        53019
#        67676
#        80011
#        87886
#        99408
#        110300
#        123878
#        136421
#        149731
#        162564
#        177359
#        190011
#        200464
#        215469
#        228455
#
# Disc length: 3329 seconds
#
# Revision: 0
# Processed by: cddbd v1.5.2PL0 Copyright (c) Steve Scherf et al.
# Submitted via: ExactAudioCopy v0.99pb4
#
DISCID=040cff13
DTITLE=Johnny Cash - The Definitive Collection
DYEAR=2008
DGENRE=Country
TTITLE0=Highwayman with Willie Nelson, Waylon Jennings and Kris Kristoff
TTITLE0=erson
TTITLE1=Sixteen Tons
TTITLE2=The Night Hank Williams Came To Town guest vocal: Waylon Jenni
TTITLE2=ngs
TTITLE3=Get Rhythm
TTITLE4=Long Black Veil
TTITLE5=Ring Of Fire
TTITLE6=Guess Things Happen That Way
TTITLE7=I Walk The Line
TTITLE8=Cry Cry Cry
TTITLE9=As Long As I Live with Emmylou Harris
TTITLE10=Ballad Of A Teenage Queen with Rosanne Cash and The Everly Brot
TTITLE10=hers
TTITLE11=Where Did We Go Right with June Carter and The Carter Family
TTITLE12=That Old Wheel with Hank Williams, Jr.
TTITLE13=Cat's In The Cradle
TTITLE14=Family bible
TTITLE15=Hey Porter
TTITLE16=Goin' By The Book
TTITLE17=Wanted Man
TTITLE18=The Wanderer with U2
EXTD=
EXTT0=
EXTT1=
EXTT2=
EXTT3=
EXTT4=
EXTT5=
EXTT6=
EXTT7=
EXTT8=
EXTT9=
EXTT10=
EXTT11=
EXTT12=
EXTT13=
EXTT14=
EXTT15=
EXTT16=
EXTT17=
EXTT18=
PLAYORDER=
